<?xml version="1.0" encoding="UTF-8"?>
<!DOCTYPE svg PUBLIC "-//W3C//DTD SVG 1.1//EN" "http://www.w3.org/Graphics/SVG/1.1/DTD/svg11.dtd">
<svg xmlns="http://www.w3.org/2000/svg" version="1.1" width="800px" height="600px" style="shape-rendering:geometricPrecision; text-rendering:geometricPrecision; image-rendering:optimizeQuality; fill-rule:evenodd; clip-rule:evenodd" xmlns:xlink="http://www.w3.org/1999/xlink">
<g><path style="opacity:0.689" fill="#000000" d="M 382.5,131.5 C 390.102,130.582 390.935,131.916 385,135.5C 384.833,136.333 384.667,137.167 384.5,138C 386.655,147.764 388.322,157.597 389.5,167.5C 393.954,167.578 398.287,166.911 402.5,165.5C 404.13,162.019 405.13,158.352 405.5,154.5C 406.5,154.5 407.5,154.5 408.5,154.5C 408.584,158.755 409.251,162.922 410.5,167C 410.355,167.772 410.022,168.439 409.5,169C 399.499,171.069 389.499,172.736 379.5,174C 379.167,173.667 378.833,173.333 378.5,173C 380.349,171.907 382.016,170.574 383.5,169C 381.212,158.563 379.046,148.063 377,137.5C 374.824,137.012 372.991,136.012 371.5,134.5C 375.319,133.598 378.986,132.598 382.5,131.5 Z"/></g>
<g><path style="opacity:0.709" fill="#000000" d="M 440.5,135.5 C 459.629,136.795 467.129,146.795 463,165.5C 457.123,176.848 447.957,180.681 435.5,177C 424.566,171.963 420.399,163.463 423,151.5C 425.898,142.761 431.731,137.428 440.5,135.5 Z M 440.5,139.5 C 451.326,140.161 456.993,145.994 457.5,157C 457.361,166.165 453.028,171.998 444.5,174.5C 434.988,172.692 429.988,166.859 429.5,157C 429.801,148.869 433.468,143.036 440.5,139.5 Z"/></g>
<g><path style="opacity:0.666" fill="#000000" d="M 345.5,136.5 C 349.051,138.58 351.385,141.747 352.5,146C 352.167,146.5 351.833,147 351.5,147.5C 349.116,145.949 346.616,144.615 344,143.5C 340.102,145.533 336.268,147.7 332.5,150C 335.046,153.59 337.213,157.423 339,161.5C 340.916,159.791 343.082,158.457 345.5,157.5C 346.35,155.096 347.35,152.763 348.5,150.5C 352.478,154.11 354.478,158.443 354.5,163.5C 352.587,162.627 350.753,161.627 349,160.5C 346.586,162.291 344.086,163.957 341.5,165.5C 343.833,169.5 346.167,173.5 348.5,177.5C 352.586,175.04 356.753,172.707 361,170.5C 361.777,167.571 361.61,164.737 360.5,162C 361.784,161.316 362.951,161.483 364,162.5C 365.517,165.343 367.017,168.177 368.5,171C 359.575,177.069 350.242,182.569 340.5,187.5C 340.167,187 339.833,186.5 339.5,186C 342.194,182.395 342.028,178.895 339,175.5C 334.58,168.329 330.414,160.996 326.5,153.5C 324.5,152.833 322.5,152.167 320.5,151.5C 328.731,146.223 337.064,141.223 345.5,136.5 Z"/></g>
<g><path style="opacity:0.691" fill="#000000" d="M 483.5,155.5 C 492.186,158.676 500.019,163.342 507,169.5C 511.151,177.047 509.318,182.547 501.5,186C 494.747,186.937 488.58,185.437 483,181.5C 481.213,185.577 479.046,189.41 476.5,193C 477.833,194.667 479.167,196.333 480.5,198C 479.975,198.692 479.308,199.192 478.5,199.5C 473.457,196.985 468.79,193.985 464.5,190.5C 466.353,189.24 468.186,189.24 470,190.5C 475.333,181.167 480.667,171.833 486,162.5C 485.244,160.285 484.411,157.951 483.5,155.5 Z M 492.5,165.5 C 497.063,167.059 500.396,170.059 502.5,174.5C 501.185,180.649 497.518,182.815 491.5,181C 489.5,179.667 487.5,178.333 485.5,177C 487.97,173.222 490.303,169.389 492.5,165.5 Z"/></g>
<g><path style="opacity:0.673" fill="#000000" d="M 297.5,158.5 C 298.873,158.343 300.207,158.51 301.5,159C 300.424,160.726 300.257,162.559 301,164.5C 307.803,176.099 313.469,188.099 318,200.5C 317.439,201.022 316.772,201.355 316,201.5C 304.5,197.667 293,193.833 281.5,190C 278.386,189.877 275.386,189.71 272.5,189.5C 275.631,184.368 279.631,180.368 284.5,177.5C 284.007,179.806 283.674,182.139 283.5,184.5C 292.217,187.132 300.884,189.632 309.5,192C 305.381,183.592 300.881,175.426 296,167.5C 294.181,169.536 292.347,169.703 290.5,168C 293.076,164.937 295.409,161.771 297.5,158.5 Z"/></g>
<g><path style="opacity:0.654" fill="#000000" d="M 524.5,190.5 C 525.552,190.351 526.552,190.517 527.5,191C 534.019,198.018 540.353,205.185 546.5,212.5C 544.146,215.688 541.312,218.355 538,220.5C 536.716,217.588 537.216,214.755 539.5,212C 536.703,208.201 533.536,204.701 530,201.5C 527.131,204.704 523.965,207.537 520.5,210C 523.04,212.205 525.207,214.705 527,217.5C 529.139,216.231 531.305,216.231 533.5,217.5C 530.51,222.289 526.51,224.956 521.5,225.5C 522.544,223.232 522.711,220.899 522,218.5C 520.333,216.833 518.667,215.167 517,213.5C 513.595,216.784 510.095,219.95 506.5,223C 510.203,226.367 513.536,230.034 516.5,234C 519.707,233.057 523.041,232.723 526.5,233C 523.651,236.016 520.651,238.85 517.5,241.5C 509.826,233.826 502.493,225.826 495.5,217.5C 497.781,216.815 500.114,216.649 502.5,217C 510,210.167 517.5,203.333 525,196.5C 525.18,194.512 525.014,192.512 524.5,190.5 Z"/></g>
<g><path style="opacity:0.663" fill="#000000" d="M 255.5,205.5 C 259.29,206.895 262.957,208.562 266.5,210.5C 263.674,211.58 260.841,212.58 258,213.5C 256.033,217.401 254.7,221.401 254,225.5C 257.206,227.101 260.539,228.434 264,229.5C 268.824,225.204 268.99,221.037 264.5,217C 265.593,215.635 266.926,215.301 268.5,216C 272.316,217.409 275.983,219.076 279.5,221C 277.447,222.08 275.28,222.914 273,223.5C 271.963,226.405 270.796,229.239 269.5,232C 274.037,234.013 278.704,235.513 283.5,236.5C 284.669,231.826 286.336,227.326 288.5,223C 286.316,220.984 284.316,218.817 282.5,216.5C 283.167,216.167 283.833,215.833 284.5,215.5C 287.86,216.519 291.193,217.519 294.5,218.5C 291.587,228.336 288.087,238.002 284,247.5C 283.29,248.973 282.124,249.64 280.5,249.5C 281.128,245.842 279.794,243.342 276.5,242C 267.72,238.777 259.054,235.277 250.5,231.5C 248.929,233.415 246.929,234.415 244.5,234.5C 247.885,224.729 251.552,215.063 255.5,205.5 Z"/></g>
<g><path style="opacity:0.699" fill="#000000" d="M 552.5,236.5 C 553.675,236.281 554.675,236.614 555.5,237.5C 559.949,245.339 562.449,253.672 563,262.5C 562.027,266.406 559.527,268.573 555.5,269C 551.263,269.127 547.263,268.46 543.5,267C 539,273.504 535.167,280.337 532,287.5C 530.219,284.667 528.719,281.667 527.5,278.5C 531.333,272.833 535.167,267.167 539,261.5C 539.712,259.305 539.045,257.638 537,256.5C 533.558,258.138 530.058,259.638 526.5,261C 526.05,263.501 525.05,265.667 523.5,267.5C 520.789,263.044 518.456,258.377 516.5,253.5C 519.228,252.06 521.395,252.726 523,255.5C 532.525,251.267 542.025,246.934 551.5,242.5C 552.466,240.604 552.799,238.604 552.5,236.5 Z M 554.5,248.5 C 559.372,254.982 558.205,259.982 551,263.5C 546.429,261.927 543.596,258.76 542.5,254C 546.71,252.391 550.71,250.558 554.5,248.5 Z"/></g>
<g><path style="opacity:0.752" fill="#000000" d="M 245.5,254.5 C 261.624,253.299 270.958,260.632 273.5,276.5C 272.543,282.439 272.21,288.439 272.5,294.5C 271.5,294.5 270.5,294.5 269.5,294.5C 269.579,293.07 269.246,291.736 268.5,290.5C 257.5,289.167 246.5,289.167 235.5,290.5C 234.974,292.23 233.974,293.564 232.5,294.5C 231.335,285.853 231.168,277.186 232,268.5C 234.017,261.318 238.517,256.652 245.5,254.5 Z M 247.5,261.5 C 263.03,260.509 270.03,267.842 268.5,283.5C 257.833,283.5 247.167,283.5 236.5,283.5C 234.404,273.024 238.071,265.691 247.5,261.5 Z"/></g>
<g><path style="opacity:0.662" fill="#000000" d="M 269.5,329.5 C 270.496,329.414 271.329,329.748 272,330.5C 276.833,339.5 281.667,348.5 286.5,357.5C 286,357.833 285.5,358.167 285,358.5C 282.95,357.209 280.783,356.709 278.5,357C 270.081,361.96 261.581,366.793 253,371.5C 252.505,373.473 252.338,375.473 252.5,377.5C 251.178,377.67 250.011,377.337 249,376.5C 244.5,368.167 240,359.833 235.5,351.5C 238.466,349.012 241.799,347.012 245.5,345.5C 246.583,346.365 246.749,347.365 246,348.5C 244.833,350.167 243.667,351.833 242.5,353.5C 244.329,357.828 246.662,361.828 249.5,365.5C 253.033,363.571 256.367,361.405 259.5,359C 258.47,356.44 257.303,353.94 256,351.5C 253.853,350.887 251.686,350.221 249.5,349.5C 253.136,346.677 257.136,344.344 261.5,342.5C 261.833,343 262.167,343.5 262.5,344C 259.762,348.483 260.428,352.483 264.5,356C 268.142,354.686 271.809,353.019 275.5,351C 275.957,350.586 276.291,350.086 276.5,349.5C 274.132,345.626 271.966,341.626 270,337.5C 266.871,336.87 263.704,336.204 260.5,335.5C 263.541,333.441 266.541,331.441 269.5,329.5 Z"/></g>
<g><path style="opacity:0.687" fill="#000000" d="M 523.5,329.5 C 527.645,329.33 531.645,329.997 535.5,331.5C 533.453,333.015 531.119,333.849 528.5,334C 522.85,338.535 522.183,343.535 526.5,349C 528.5,349.667 530.5,349.667 532.5,349C 536.132,344.366 540.132,340.033 544.5,336C 554.16,333.835 559.827,337.668 561.5,347.5C 560.91,358.787 555.577,362.12 545.5,357.5C 547.657,356.21 549.99,355.376 552.5,355C 558.21,349.595 557.71,345.095 551,341.5C 549.933,342.191 548.766,342.691 547.5,343C 544.202,347.3 540.535,351.3 536.5,355C 526.017,358.368 520.017,354.535 518.5,343.5C 519.049,338.408 520.716,333.741 523.5,329.5 Z"/></g>
<g><path style="opacity:0.7" fill="#000000" d="M 282.5,366.5 C 285.614,367.091 288.114,368.758 290,371.5C 290.045,378.571 289.212,385.571 287.5,392.5C 287.785,394.569 288.952,395.902 291,396.5C 293.432,393.312 296.099,390.312 299,387.5C 299.334,385.153 299.167,382.819 298.5,380.5C 303.668,382.986 308.001,386.653 311.5,391.5C 309.269,391.887 306.936,392.053 304.5,392C 297.667,399.5 290.833,407 284,414.5C 283.862,416.432 284.362,418.266 285.5,420C 284.725,421.23 283.725,421.563 282.5,421C 278.301,416.466 273.801,412.299 269,408.5C 262.515,395.455 266.682,389.455 281.5,390.5C 281.978,384.819 282.645,379.152 283.5,373.5C 283.247,371.142 282.914,368.808 282.5,366.5 Z M 276.5,395.5 C 278.527,395.338 280.527,395.505 282.5,396C 283.878,397.713 285.545,399.047 287.5,400C 284.988,403.846 281.821,407.012 278,409.5C 271.583,405.239 271.083,400.573 276.5,395.5 Z"/></g>
<g><path style="opacity:0.706" fill="#000000" d="M 510.5,369.5 C 522.9,367.286 532.067,371.619 538,382.5C 541.73,394.869 537.897,404.036 526.5,410C 512.962,413.48 503.129,408.98 497,396.5C 494.631,383.905 499.131,374.905 510.5,369.5 Z M 513.5,375.5 C 521.5,376.082 528,379.416 533,385.5C 535.879,399.626 530.046,405.792 515.5,404C 507.576,401.881 502.576,396.881 500.5,389C 502.037,381.632 506.37,377.132 513.5,375.5 Z"/></g>
<g><path style="opacity:0.658" fill="#000000" d="M 477.5,398.5 C 478.586,398.62 479.253,399.287 479.5,400.5C 478.772,402.155 478.605,403.821 479,405.5C 485.646,413.647 492.479,421.647 499.5,429.5C 501.516,428.294 503.516,428.294 505.5,429.5C 498.123,436.213 490.457,442.546 482.5,448.5C 479.527,446.194 476.86,443.527 474.5,440.5C 475.167,440.167 475.833,439.833 476.5,439.5C 483.535,442.166 488.868,439.999 492.5,433C 490.014,429.844 487.514,426.678 485,423.5C 482.65,425.683 480.483,428.016 478.5,430.5C 479.309,432.071 479.643,433.738 479.5,435.5C 478.448,435.649 477.448,435.483 476.5,435C 474.021,431.687 471.355,428.52 468.5,425.5C 471.099,424.969 473.765,424.802 476.5,425C 478.167,423.333 479.833,421.667 481.5,420C 478.833,416.667 476.167,413.333 473.5,410C 471.432,409.313 469.432,409.48 467.5,410.5C 466.692,410.192 466.025,409.692 465.5,409C 469.693,405.635 473.693,402.135 477.5,398.5 Z"/></g>
<g><path style="opacity:0.671" fill="#000000" d="M 310.5,401.5 C 316.255,402.377 321.588,404.377 326.5,407.5C 324.604,408.466 322.604,408.799 320.5,408.5C 320.5,412.5 320.5,416.5 320.5,420.5C 324.677,421.253 328.677,422.586 332.5,424.5C 335.317,422.183 337.984,419.683 340.5,417C 337.941,415.677 337.275,413.843 338.5,411.5C 342.874,413.236 347.207,415.069 351.5,417C 350.051,418.117 348.384,418.784 346.5,419C 337.167,428.333 327.833,437.667 318.5,447C 317.207,447.49 315.873,447.657 314.5,447.5C 313.737,433.525 313.237,419.525 313,405.5C 311.519,404.529 310.685,403.196 310.5,401.5 Z M 320.5,425.5 C 323.852,425.784 326.852,426.95 329.5,429C 326.667,431.833 323.833,434.667 321,437.5C 320.501,433.514 320.334,429.514 320.5,425.5 Z"/></g>
<g><path style="opacity:0.678" fill="#000000" d="M 434.5,421.5 C 435.978,421.238 437.311,421.571 438.5,422.5C 436.64,423.939 434.973,425.605 433.5,427.5C 437.5,436.833 441.5,446.167 445.5,455.5C 448.514,456.231 451.347,455.564 454,453.5C 454.176,450.118 454.676,446.785 455.5,443.5C 458.242,446.692 460.242,450.358 461.5,454.5C 450.476,460.842 438.809,465.842 426.5,469.5C 425.327,465.645 423.994,461.812 422.5,458C 422.833,457.5 423.167,457 423.5,456.5C 426.524,458.535 429.524,460.535 432.5,462.5C 434.953,461.773 437.286,460.773 439.5,459.5C 434.927,449.693 430.927,439.693 427.5,429.5C 424.603,429.875 421.937,429.375 419.5,428C 424.807,426.295 429.807,424.129 434.5,421.5 Z"/></g>
<g><path style="opacity:0.682" fill="#000000" d="M 387.5,426.5 C 389.911,426.137 391.411,427.137 392,429.5C 395.803,440.577 399.803,451.577 404,462.5C 405.946,463.747 407.78,465.08 409.5,466.5C 403.835,467.309 398.168,467.975 392.5,468.5C 392.961,466.084 394.294,464.25 396.5,463C 393.803,455.909 391.303,448.742 389,441.5C 385.554,450.611 382.72,459.944 380.5,469.5C 379.022,469.762 377.689,469.429 376.5,468.5C 372.57,459.875 368.736,451.208 365,442.5C 363.04,449.968 361.206,457.468 359.5,465C 360.817,466.614 362.483,467.781 364.5,468.5C 359.666,470.652 354.666,470.986 349.5,469.5C 351.342,468.158 352.842,466.491 354,464.5C 356.837,452.486 359.67,440.486 362.5,428.5C 364.144,428.286 365.644,428.62 367,429.5C 370.392,437.951 374.059,446.284 378,454.5C 381.471,445.286 384.638,435.953 387.5,426.5 Z"/></g>
</svg>
