<?xml version="1.0" standalone="no"?>
<!DOCTYPE svg PUBLIC "-//W3C//DTD SVG 20010904//EN"
 "http://www.w3.org/TR/2001/REC-SVG-20010904/DTD/svg10.dtd">
<svg version="1.0" xmlns="http://www.w3.org/2000/svg"
 width="1508.000000pt" height="1378.000000pt" viewBox="0 0 1508.000000 1378.000000"
 preserveAspectRatio="xMidYMid meet">

<g transform="translate(0.000000,1378.000000) scale(0.100000,-0.100000)"
fill="#000000" stroke="none">
<path d="M7377 13144 c-15 -15 -6 -24 23 -24 58 0 98 -25 109 -67 16 -61 27
-813 12 -842 -14 -25 -67 -51 -107 -51 -14 0 -24 -5 -22 -11 2 -6 7 -10 11
-10 4 1 99 1 212 1 176 0 205 2 205 15 0 11 -11 15 -35 15 -46 0 -90 23 -100
52 -4 13 -10 105 -12 206 l-5 182 55 0 56 0 173 -230 173 -229 95 0 c169 -1
216 19 111 46 -90 23 -117 48 -290 278 l-120 160 32 11 c139 48 207 131 207
251 -1 101 -54 178 -155 225 -48 22 -62 23 -335 26 -157 2 -289 0 -293 -4z
m505 -70 c76 -38 111 -98 111 -189 0 -71 -16 -108 -72 -158 -45 -40 -87 -55
-182 -64 l-66 -6 -6 63 c-4 35 -7 130 -7 211 0 165 -7 149 70 163 43 7 117 -2
152 -20z"/>
<path d="M5964 13012 c-6 -4 -27 -215 -51 -502 -45 -534 -50 -565 -104 -597
-26 -16 -40 -43 -22 -43 4 0 72 21 150 47 147 49 188 77 94 66 -41 -5 -52 -2
-71 17 -21 21 -22 27 -15 134 4 61 11 120 15 131 6 16 47 33 190 79 100 32
185 54 189 49 4 -4 35 -39 68 -78 102 -117 113 -166 44 -195 -27 -11 -44 -40
-24 -40 26 0 373 124 371 132 -2 5 -26 11 -54 12 -38 1 -60 8 -87 29 -20 15
-181 194 -357 397 -177 204 -323 370 -324 370 0 0 -6 -4 -12 -8z m196 -411
c69 -79 124 -146 122 -149 -2 -7 -314 -114 -318 -109 -1 1 7 94 17 207 10 113
19 212 19 220 0 11 5 10 18 -5 9 -12 73 -85 142 -164z"/>
<path d="M5415 12939 c-66 -37 -120 -74 -120 -81 0 -15 7 -14 52 3 43 17 78 1
92 -43 12 -36 131 -671 127 -676 -5 -4 -491 424 -514 452 -32 41 -29 80 8 108
26 19 43 55 22 46 -44 -18 -340 -193 -337 -199 3 -4 31 -5 63 -2 53 4 61 2
103 -29 25 -18 68 -53 95 -78 l50 -45 42 -235 c23 -129 42 -241 42 -248 0 -11
-425 355 -507 437 -42 42 -42 74 -2 110 63 58 7 40 -145 -46 -86 -48 -156 -94
-156 -102 0 -8 6 -11 18 -6 42 17 82 17 107 1 13 -9 192 -160 396 -337 225
-194 376 -318 385 -315 9 3 12 15 8 33 -19 101 -112 638 -111 640 1 1 116 -97
256 -218 140 -120 260 -219 267 -219 8 0 14 8 14 18 0 9 -38 224 -85 477 -47
253 -85 479 -85 502 0 33 7 50 30 76 26 30 30 49 11 46 -3 -1 -60 -32 -126
-70z"/>
<path d="M9026 12944 c-3 -8 6 -15 22 -19 16 -3 42 -14 60 -25 27 -17 32 -26
32 -57 0 -39 -172 -765 -192 -808 -14 -30 -55 -48 -104 -43 -22 2 -41 -1 -43
-7 -3 -9 689 -184 731 -185 25 0 163 214 141 218 -8 2 -38 -19 -67 -46 -67
-65 -109 -86 -171 -84 -53 1 -279 53 -314 72 -30 16 -27 49 21 252 32 133 47
178 58 178 21 0 220 -48 253 -61 15 -7 39 -25 53 -42 23 -27 26 -38 21 -79 -5
-37 -3 -48 8 -48 7 0 16 8 19 18 6 20 76 312 76 318 0 2 -6 4 -14 4 -8 0 -17
-11 -20 -24 -3 -14 -18 -38 -32 -55 -23 -27 -32 -31 -77 -31 -43 0 -271 50
-282 62 -2 1 17 87 42 191 37 152 48 187 62 187 30 0 303 -70 338 -87 42 -19
63 -59 70 -129 4 -33 10 -53 17 -51 9 3 44 152 45 198 1 12 -43 26 -196 63
-109 26 -278 67 -375 90 -135 33 -178 40 -182 30z"/>
<path d="M3381 11697 c-157 -150 -286 -277 -288 -283 -4 -12 133 -174 148
-174 14 0 11 10 -16 64 -27 54 -30 80 -15 122 12 31 138 164 156 164 16 0 570
-583 589 -620 18 -34 8 -70 -31 -111 -17 -18 -22 -29 -14 -34 9 -6 182 147
279 249 43 45 34 58 -17 22 -50 -34 -83 -33 -127 5 -19 17 -157 159 -305 314
l-270 284 80 70 c44 39 91 73 105 77 42 11 111 -2 145 -26 20 -15 35 -19 41
-13 11 11 -144 163 -164 162 -7 0 -140 -123 -296 -272z"/>
<path d="M10295 11754 c-14 -25 -24 -48 -20 -53 6 -11 326 -184 329 -179 2 2
15 23 29 48 l26 45 -169 91 -169 92 -26 -44z"/>
<path d="M11606 11632 c-3 -5 9 -22 25 -38 43 -40 52 -68 35 -107 -23 -54
-509 -631 -544 -646 -34 -14 -64 -8 -101 20 -26 21 -41 24 -41 10 0 -9 271
-239 385 -327 187 -145 411 -166 585 -54 74 48 163 149 204 232 93 188 66 363
-79 525 -48 54 -444 393 -458 393 -3 0 -8 -4 -11 -8z m321 -319 c120 -97 174
-277 125 -419 -46 -131 -163 -269 -278 -325 -88 -44 -208 -52 -297 -21 -70 25
-143 77 -196 141 l-40 48 275 332 276 332 46 -27 c26 -15 66 -42 89 -61z"/>
<path d="M2161 10364 c-105 -173 -189 -320 -185 -325 3 -6 25 11 48 36 46 49
68 55 119 29 86 -44 656 -392 680 -415 32 -33 34 -61 7 -114 -24 -47 -24 -45
-6 -45 21 0 232 358 218 372 -7 7 -15 1 -26 -21 -23 -44 -59 -65 -100 -58 -46
7 -358 196 -352 212 15 39 120 197 138 206 20 11 83 8 126 -6 13 -4 22 -3 22
3 0 6 -64 49 -142 96 -146 88 -192 99 -124 32 53 -54 50 -88 -20 -207 -31 -51
-57 -96 -59 -97 -2 -2 -80 42 -174 98 l-170 102 66 107 c85 139 108 168 145
187 27 14 97 19 148 11 8 -1 17 2 19 8 3 9 -154 103 -176 104 -6 1 -97 -141
-202 -315z"/>
<path d="M12687 10474 c-3 -4 5 -23 18 -43 35 -51 32 -80 -12 -123 -54 -51
-611 -458 -651 -475 -28 -11 -36 -11 -61 2 -16 8 -39 27 -50 42 -14 16 -25 23
-31 17 -6 -6 72 -121 211 -309 121 -165 225 -305 232 -311 15 -14 261 61 252
76 -4 6 -48 10 -100 10 -144 0 -160 10 -280 175 -87 120 -97 138 -88 161 7 18
309 246 329 248 12 1 140 -168 169 -223 22 -44 14 -86 -27 -128 -22 -23 -29
-36 -22 -43 7 -7 54 22 147 91 75 55 137 105 137 110 0 13 -21 11 -50 -6 -36
-20 -93 -18 -122 4 -13 11 -59 67 -102 126 -93 126 -105 96 98 244 113 83 142
99 152 89 32 -34 188 -257 201 -287 19 -45 10 -86 -28 -134 -18 -22 -28 -44
-25 -53 4 -12 26 1 87 53 45 37 81 73 80 78 -3 14 -444 615 -452 615 -3 0 -8
-3 -12 -6z"/>
<path d="M1810 9379 c-82 -14 -207 -79 -268 -140 -104 -104 -158 -271 -134
-415 7 -40 27 -101 48 -144 136 -276 520 -380 780 -212 220 143 281 449 133
671 -116 174 -352 275 -559 240z m190 -179 c101 -26 216 -77 271 -121 88 -70
138 -189 119 -287 -21 -113 -66 -174 -162 -218 -59 -27 -70 -29 -183 -28 -99
1 -136 6 -208 28 -234 70 -363 184 -375 331 -11 144 69 266 203 309 69 22 223
16 335 -14z"/>
<path d="M13470 8979 l0 -63 -370 -371 c-203 -204 -370 -377 -370 -386 0 -14
36 -17 287 -22 157 -4 373 -7 479 -7 231 0 285 -9 333 -57 19 -19 37 -30 41
-26 11 11 -102 294 -115 290 -5 -2 -8 -23 -7 -46 5 -58 -16 -86 -70 -95 -24
-4 -195 -4 -381 0 l-339 7 224 225 c254 255 308 302 347 302 27 0 58 -25 77
-62 5 -9 14 -14 20 -10 13 8 -126 374 -145 380 -7 2 -11 -17 -11 -59z"/>
<path d="M1695 7616 c-65 -30 -113 -85 -203 -235 -134 -221 -182 -271 -260
-271 -33 0 -86 33 -114 71 -69 92 -21 261 93 332 26 15 74 34 108 40 91 17 77
33 -36 40 -163 11 -243 9 -243 -6 0 -8 11 -19 25 -25 32 -15 32 -37 -2 -115
-34 -81 -43 -202 -19 -274 21 -62 65 -116 124 -151 39 -22 59 -27 117 -27 130
0 188 50 332 282 96 155 125 189 182 218 44 22 108 16 150 -15 50 -35 71 -87
71 -174 0 -142 -83 -248 -218 -277 -31 -7 -61 -16 -67 -21 -22 -20 19 -27 173
-30 126 -2 162 0 162 10 0 7 -11 17 -25 22 -33 13 -32 40 6 159 27 84 30 107
27 181 -5 97 -32 162 -90 217 -77 74 -197 94 -293 49z"/>
<path d="M13859 7503 c-1 -5 0 -20 1 -36 3 -57 -10 -88 -46 -103 -45 -19 -804
-119 -838 -110 -31 8 -66 60 -66 99 0 17 -5 27 -15 27 -8 0 -15 -2 -15 -3 0
-33 102 -763 108 -768 4 -4 62 -18 130 -32 145 -29 159 -18 48 37 -82 40 -130
87 -145 142 -5 20 -18 98 -27 174 -20 152 -17 163 34 175 66 14 378 52 383 46
4 -3 14 -68 24 -144 16 -132 16 -139 -2 -175 -14 -28 -28 -41 -63 -53 -25 -9
-46 -23 -48 -31 -3 -14 70 -8 305 27 58 8 49 35 -12 35 -51 0 -89 26 -104 73
-10 30 -41 232 -41 267 0 16 37 22 380 63 11 2 19 -35 37 -176 23 -176 23
-178 5 -221 -16 -36 -28 -46 -75 -67 -31 -13 -57 -30 -57 -36 0 -7 3 -13 7
-13 22 0 199 34 206 40 4 4 -13 162 -38 351 -55 423 -55 419 -66 419 -5 0 -9
-3 -10 -7z"/>
<path d="M12870 5964 c0 -3 -20 -164 -45 -358 -25 -193 -46 -364 -48 -380 -2
-28 3 -31 123 -87 69 -32 128 -58 133 -59 21 -1 0 23 -57 64 -76 54 -116 122
-116 196 0 64 29 280 41 302 5 10 20 20 34 24 25 6 722 -79 787 -97 52 -14 68
-41 68 -117 0 -46 3 -63 13 -60 8 3 21 74 39 209 14 112 27 215 27 227 1 28
-23 25 -27 -4 -12 -79 -34 -104 -94 -104 -53 0 -741 88 -790 101 -48 12 -73
55 -65 111 4 28 2 38 -9 38 -8 0 -14 -3 -14 -6z"/>
<path d="M12683 4565 c-199 -54 -338 -220 -359 -429 -29 -289 238 -559 553
-559 208 0 398 129 462 314 28 80 37 197 22 268 -30 142 -141 285 -270 350
-128 65 -291 87 -408 56z m247 -174 c182 -62 296 -145 351 -257 29 -58 31 -71
27 -131 -8 -114 -79 -217 -177 -261 -60 -27 -225 -21 -334 12 -107 32 -225 90
-294 145 -75 59 -118 150 -117 246 2 137 73 233 204 276 14 5 75 7 135 5 92
-2 125 -8 205 -35z"/>
<path d="M11853 3453 c-146 -210 -154 -223 -148 -233 3 -5 23 8 44 30 42 45
72 50 124 24 39 -20 276 -184 283 -196 3 -5 -13 -27 -35 -51 -60 -64 -79 -90
-109 -154 -59 -128 -24 -257 92 -338 57 -39 60 -40 144 -40 76 0 93 3 132 27
70 42 138 119 269 308 85 122 118 177 110 185 -7 7 -14 4 -21 -9 -19 -35 -60
-66 -85 -66 -13 0 -38 7 -56 16 -50 26 -608 413 -644 447 -39 37 -43 76 -12
126 13 21 17 37 11 43 -6 6 -42 -37 -99 -119z m518 -518 c85 -59 158 -111 163
-115 13 -12 -11 -71 -46 -114 -36 -45 -97 -75 -149 -76 -86 0 -190 64 -229
141 -24 45 -26 122 -5 162 24 46 87 118 100 113 6 -2 81 -52 166 -111z"/>
<path d="M10770 2345 c-151 -134 -279 -250 -284 -258 -13 -20 81 -247 99 -240
8 2 12 10 9 16 -2 7 -8 42 -13 79 -11 79 0 139 34 184 45 59 233 214 260 214
19 0 54 -34 160 -152 74 -84 135 -155 134 -158 -1 -10 -171 -155 -208 -177
-55 -34 -95 -29 -149 20 -15 15 -25 18 -33 10 -7 -7 23 -48 101 -137 119 -134
158 -161 115 -80 -43 81 -32 109 82 209 43 38 90 79 104 93 l27 24 128 -146
c71 -81 130 -150 131 -154 2 -10 -231 -213 -270 -234 -46 -26 -87 -22 -141 13
-35 22 -52 27 -59 20 -8 -8 10 -33 63 -86 41 -41 77 -75 80 -75 4 0 538 466
579 505 1 2 0 9 -4 15 -5 8 -14 6 -29 -8 -53 -49 -91 -53 -135 -16 -38 31
-509 565 -535 605 -23 36 -16 67 24 113 17 18 30 36 30 40 0 22 -56 -22 -300
-239z"/>
<path d="M9698 1724 c-104 -52 -188 -99 -188 -104 0 -13 7 -13 57 5 47 16 77
10 104 -21 18 -20 169 -318 169 -331 -1 -5 -20 -18 -44 -29 l-43 -22 -259 134
-259 135 -117 -58 c-65 -31 -118 -63 -118 -71 0 -10 8 -12 33 -5 17 4 60 8 95
8 60 0 72 -5 277 -109 118 -61 215 -112 215 -114 0 -2 -19 -25 -41 -50 -58
-65 -79 -115 -79 -187 0 -167 150 -274 322 -231 60 16 518 233 518 246 0 16
-15 18 -41 5 -42 -22 -92 -19 -116 8 -12 12 -100 181 -197 374 -191 384 -198
404 -150 448 14 13 35 27 45 30 19 6 25 20 12 28 -5 3 -92 -37 -195 -89z m264
-689 c106 -211 107 -188 -9 -246 -53 -27 -71 -31 -117 -27 -71 6 -124 42 -162
111 -64 117 -15 241 126 321 25 14 51 26 58 26 6 0 54 -83 104 -185z"/>
</g>
</svg>
