<?xml version="1.0" standalone="no"?>
<!DOCTYPE svg PUBLIC "-//W3C//DTD SVG 20010904//EN"
 "http://www.w3.org/TR/2001/REC-SVG-20010904/DTD/svg10.dtd">
<svg version="1.0" xmlns="http://www.w3.org/2000/svg"
 width="1247.000000pt" height="1203.000000pt" viewBox="0 0 1247.000000 1203.000000"
 preserveAspectRatio="xMidYMid meet">

<g transform="translate(0.000000,1203.000000) scale(0.100000,-0.100000)"
fill="#000000" stroke="none">
<path d="M5 6015 c0 -3311 1 -4667 2 -3013 2 1653 2 4362 0 6020 -1 1657 -2
304 -2 -3007z"/>
<path d="M5348 11181 c-113 -38 -148 -58 -87 -48 51 8 76 -13 84 -66 3 -23 2
-154 -2 -291 l-8 -249 -130 168 c-234 302 -243 320 -185 353 28 16 39 32 23
32 -24 0 -283 -93 -283 -102 0 -6 10 -8 22 -5 38 10 84 -19 142 -91 l57 -70
-7 -199 c-3 -109 -8 -199 -9 -201 -1 -1 -79 98 -174 220 -188 245 -196 263
-140 297 57 35 15 29 -124 -18 -137 -46 -158 -61 -86 -61 45 0 30 17 323 -358
125 -161 232 -292 237 -292 5 0 9 28 10 63 0 34 2 76 3 92 1 17 3 110 4 208 1
104 6 177 11 175 5 -1 78 -91 161 -198 172 -220 177 -226 186 -218 3 4 8 172
10 375 6 442 6 448 46 485 17 16 29 30 27 32 -2 2 -52 -13 -111 -33z"/>
<path d="M6018 11123 c-61 -2 -108 -8 -108 -13 0 -6 17 -10 38 -10 70 0 76
-11 83 -162 4 -73 8 -229 8 -345 1 -200 0 -214 -19 -233 -11 -11 -33 -20 -49
-20 -17 0 -33 -4 -36 -10 -7 -12 198 -13 448 -3 l166 6 32 94 c17 52 28 97 24
101 -4 4 -10 2 -12 -5 -2 -6 -21 -35 -41 -64 -52 -74 -82 -86 -232 -94 -173
-9 -164 -20 -168 188 l-4 164 99 7 c143 9 185 -6 203 -75 17 -62 32 -48 26 24
-3 34 -5 97 -6 140 0 44 -4 77 -10 77 -5 0 -10 -11 -10 -25 0 -36 -19 -71 -45
-83 -12 -6 -74 -14 -137 -17 l-115 -8 -6 54 c-3 30 -5 104 -4 164 l2 110 145
3 c130 2 148 0 177 -18 24 -14 36 -32 45 -65 7 -25 16 -45 20 -45 9 0 11 94 2
139 l-6 31 -202 -2 c-110 -1 -249 -4 -308 -5z"/>
<path d="M7230 10962 c0 -5 18 -16 40 -25 48 -19 58 -47 40 -126 -51 -232
-141 -576 -156 -592 -12 -14 -31 -19 -68 -19 -27 0 -46 -4 -40 -8 21 -19 450
-114 520 -115 87 -2 154 29 197 89 66 95 38 211 -67 275 l-29 17 39 11 c62 17
100 46 123 93 53 111 1 222 -134 284 -28 13 -136 44 -240 69 -105 26 -198 48
-207 51 -10 3 -18 1 -18 -4z m315 -107 c32 -9 76 -26 98 -38 80 -45 112 -157
65 -227 -39 -57 -72 -75 -136 -74 -75 1 -202 39 -202 60 0 13 28 129 61 257
11 43 23 45 114 22z m-60 -369 c66 -20 135 -66 159 -107 27 -46 26 -125 -2
-171 -41 -67 -137 -94 -237 -67 -77 20 -125 42 -125 56 0 8 16 82 36 165 l36
150 42 -5 c22 -4 64 -13 91 -21z"/>
<path d="M2925 10103 c-27 -10 -72 -34 -99 -52 -44 -30 -304 -267 -350 -320
-24 -26 -9 -27 24 -1 54 43 73 32 219 -117 73 -76 178 -186 232 -245 111 -120
119 -143 73 -197 -14 -17 -20 -31 -14 -31 11 0 214 189 294 274 183 195 180
416 -9 595 -75 71 -149 104 -245 108 -54 3 -89 -1 -125 -14z m179 -117 c64
-32 153 -116 192 -182 54 -92 62 -221 19 -304 -22 -43 -81 -106 -131 -141
l-43 -29 -233 246 c-128 135 -234 251 -236 257 -4 17 81 111 124 138 64 39
105 50 181 46 52 -3 86 -11 127 -31z"/>
<path d="M9300 9912 c0 -6 11 -22 25 -36 31 -31 32 -68 3 -109 -43 -60 -370
-452 -397 -474 -32 -28 -54 -29 -97 -2 -74 45 -27 -5 108 -117 188 -156 240
-191 316 -214 78 -24 140 -25 213 -4 190 55 333 273 299 454 -23 119 -71 180
-284 357 -83 70 -159 133 -168 141 -11 9 -18 11 -18 4z m216 -228 c95 -63 154
-165 154 -264 0 -127 -112 -295 -241 -361 -54 -27 -168 -37 -225 -19 -54 16
-135 73 -172 118 l-30 38 216 262 c120 144 223 262 230 262 8 0 38 -16 68 -36z"/>
<path d="M1952 9245 c-69 -115 -87 -162 -37 -98 31 39 54 45 102 23 76 -34
436 -260 422 -264 -8 -3 -180 -28 -384 -56 -203 -29 -372 -54 -374 -56 -13
-12 -108 -180 -105 -185 2 -4 22 11 44 32 28 27 52 40 83 44 42 7 49 3 311
-156 178 -107 271 -170 279 -186 8 -18 7 -31 -7 -60 -9 -19 -14 -38 -11 -41 3
-3 7 -3 9 -1 12 12 136 225 136 233 0 6 -15 -7 -34 -27 -39 -43 -52 -45 -108
-16 -58 30 -420 249 -438 265 -12 12 -12 14 5 14 57 1 809 117 812 125 1 6
-134 92 -301 193 -167 101 -313 192 -325 203 -23 22 -27 59 -10 90 6 11 9 25
6 32 -2 6 -36 -42 -75 -108z"/>
<path d="M10160 8983 c0 -5 7 -18 15 -29 8 -10 15 -33 15 -51 0 -25 -8 -38
-42 -66 -40 -32 -250 -187 -427 -314 -87 -63 -119 -68 -161 -23 -16 17 -31 27
-33 23 -3 -5 71 -111 165 -238 93 -126 175 -238 183 -249 13 -17 17 -17 115
14 56 17 99 34 95 38 -3 4 -35 5 -70 4 -82 -5 -123 9 -166 56 -61 65 -139 179
-139 203 0 19 27 44 132 121 72 54 134 95 138 93 4 -3 35 -43 69 -90 75 -103
84 -138 46 -183 -53 -63 -17 -52 92 29 62 45 110 86 107 91 -3 4 -18 1 -34 -7
-52 -27 -84 -20 -127 29 -21 24 -57 70 -80 103 l-42 60 125 91 c69 51 128 92
133 92 15 0 171 -226 177 -257 6 -33 -6 -64 -39 -100 -11 -13 -18 -26 -14 -29
8 -8 39 12 96 63 l45 40 -178 241 c-169 231 -196 264 -196 245z"/>
<path d="M1151 7773 c-39 -137 -78 -269 -86 -295 -17 -57 -4 -63 22 -11 32 65
27 65 310 -17 440 -126 429 -121 419 -197 -13 -99 15 -26 95 253 l86 295 -85
60 c-46 33 -86 58 -89 56 -2 -3 16 -30 41 -61 59 -73 68 -108 50 -188 -21 -91
-53 -189 -65 -205 -17 -20 -38 -17 -195 29 -106 31 -144 46 -144 57 1 25 46
175 64 208 18 36 33 43 92 43 24 0 44 4 44 8 0 7 -240 82 -263 82 -18 0 -4
-17 27 -34 39 -21 55 -49 49 -91 -4 -30 -53 -207 -58 -213 -8 -9 -305 84 -305
96 0 20 58 212 77 255 20 45 56 67 113 67 22 0 40 4 40 9 0 8 -125 41 -155 41
-7 0 -40 -97 -84 -247z"/>
<path d="M10789 7834 c0 -5 0 -29 1 -53 l2 -44 -302 -302 c-192 -192 -298
-305 -290 -310 6 -4 176 -9 378 -12 202 -2 389 -9 417 -14 30 -6 60 -20 77
-36 15 -15 30 -24 33 -21 7 7 -78 228 -87 228 -5 0 -8 -18 -8 -39 0 -72 5 -71
-331 -71 -164 0 -299 4 -299 8 0 5 12 19 28 32 15 13 111 106 213 207 206 203
217 209 263 151 14 -18 27 -30 30 -27 5 5 -107 296 -119 307 -3 3 -5 1 -6 -4z"/>
<path d="M11101 6577 c-1 -54 -15 -75 -59 -87 -42 -12 -548 -79 -618 -82 -38
-2 -50 2 -65 21 -10 13 -19 34 -19 47 0 12 -4 26 -10 29 -15 9 -12 -26 28
-330 l38 -280 64 -16 c157 -39 182 -32 75 20 -35 18 -74 45 -85 62 -21 28 -39
111 -54 239 -10 83 -7 86 172 110 85 12 159 19 166 17 8 -3 17 -48 25 -121 17
-147 13 -156 -87 -191 -7 -3 -11 -9 -8 -13 3 -5 63 0 133 9 70 10 131 18 136
19 4 0 7 5 7 10 0 6 -13 10 -30 10 -42 0 -77 19 -89 49 -9 21 -42 232 -37 238
1 1 71 11 155 22 106 14 157 18 161 11 14 -23 40 -279 31 -303 -11 -29 -54
-65 -88 -73 -27 -7 -31 -24 -5 -24 31 0 136 22 146 31 4 4 -8 134 -29 291 -35
277 -53 367 -54 285z"/>
<path d="M1340 6428 c0 -24 -3 -94 -7 -155 l-6 -113 46 0 47 0 0 145 c0 80 1
148 3 153 1 4 -17 8 -40 10 l-43 3 0 -43z"/>
<path d="M1537 5835 c-8 -76 -43 -147 -182 -365 -64 -102 -119 -187 -121 -189
-4 -5 -290 177 -344 220 -26 20 -54 53 -64 73 -15 33 -45 53 -33 24 2 -7 17
-70 32 -140 28 -126 45 -162 45 -94 0 45 25 54 82 28 43 -19 314 -197 323
-212 3 -5 -34 -17 -82 -28 -238 -55 -252 -54 -279 8 -28 64 -33 47 -13 -42 10
-46 26 -120 36 -165 9 -46 21 -83 25 -83 4 0 8 22 8 50 0 40 4 52 23 64 26 17
601 146 650 146 38 0 62 -21 72 -62 4 -16 11 -28 16 -28 12 0 13 -9 -26 167
-19 86 -35 158 -35 160 0 2 -4 3 -10 3 -5 0 -7 -12 -4 -27 8 -40 -11 -82 -42
-93 -36 -14 -295 -71 -304 -68 -11 4 216 360 238 376 25 16 51 6 64 -27 9 -21
12 -22 15 -9 5 20 -65 348 -77 361 -4 4 -10 -17 -13 -48z"/>
<path d="M10306 5353 c-9 -44 -77 -586 -74 -588 2 -2 48 -23 103 -48 95 -44
137 -53 85 -18 -46 30 -91 74 -106 102 -17 33 -18 118 -3 226 14 104 20 113
71 113 63 0 589 -69 620 -81 32 -13 53 -66 44 -110 -3 -16 -1 -29 4 -29 6 0
10 3 10 8 1 4 11 85 24 180 22 163 20 220 -4 132 -18 -69 -22 -69 -358 -26
-163 20 -314 42 -335 47 -45 12 -71 47 -65 89 6 38 -8 40 -16 3z"/>
<path d="M1625 4500 c3 -5 16 -10 29 -10 50 0 146 -42 185 -81 86 -86 116
-223 71 -327 -56 -129 -268 -252 -434 -252 -116 1 -195 48 -242 148 -48 100
-32 207 45 294 17 20 31 41 31 47 0 12 -223 -123 -228 -138 -2 -7 11 -11 32
-11 19 0 37 -4 41 -9 3 -5 10 -44 15 -85 17 -133 97 -248 215 -310 58 -30 65
-31 181 -31 119 0 121 0 197 38 242 120 317 378 170 586 -49 70 -95 106 -166
131 -59 21 -153 28 -142 10z"/>
<path d="M10135 4249 c-166 -53 -276 -218 -262 -392 13 -173 127 -309 306
-367 147 -47 312 -10 416 95 111 110 139 294 68 443 -86 182 -332 285 -528
221z m190 -121 c90 -26 195 -79 245 -124 50 -45 90 -125 90 -179 0 -109 -67
-202 -166 -231 -156 -45 -437 53 -533 187 -61 83 -60 200 2 281 71 92 195 115
362 66z"/>
<path d="M2176 3680 c4 -14 8 -47 8 -75 0 -44 -20 -92 -171 -408 -109 -228
-167 -360 -160 -363 7 -2 185 55 396 126 211 72 393 130 403 130 10 0 33 -7
49 -16 44 -22 47 -11 9 33 -124 143 -162 174 -126 104 34 -66 25 -76 -111
-122 l-84 -28 -38 42 c-107 118 -171 191 -171 196 1 3 22 47 48 96 41 78 51
90 75 93 17 2 37 -4 48 -14 40 -36 30 -2 -14 48 -103 119 -168 184 -161 158z
m74 -526 c47 -52 86 -99 88 -104 2 -4 -72 -33 -163 -64 -112 -37 -165 -50
-161 -41 18 48 141 305 146 305 3 0 44 -43 90 -96z"/>
<path d="M9465 3329 c-94 -135 -118 -186 -56 -120 17 18 39 31 53 31 25 0 97
-42 216 -127 l62 -45 -45 -51 c-64 -73 -95 -139 -95 -203 0 -66 13 -100 53
-142 94 -98 232 -96 329 6 35 36 225 302 235 329 9 22 -7 14 -34 -17 -37 -45
-71 -40 -162 22 -272 185 -439 303 -459 326 -26 28 -25 71 4 103 8 9 11 20 6
23 -5 3 -53 -58 -107 -135z m557 -523 c-56 -105 -167 -125 -270 -48 -48 35
-72 79 -72 132 1 51 11 73 57 124 l33 35 139 -96 140 -97 -27 -50z"/>
<path d="M8664 2514 c-104 -92 -208 -184 -232 -206 l-42 -39 36 -87 c19 -48
39 -90 43 -95 4 -4 7 38 7 94 l-1 102 99 94 c94 88 132 113 154 99 5 -3 57
-59 116 -125 l106 -119 -73 -64 c-122 -108 -141 -116 -204 -77 -19 12 -37 19
-40 15 -5 -5 30 -47 164 -195 19 -22 27 -6 10 21 -15 23 -20 46 -18 80 1 19
37 57 128 135 l60 53 106 -120 106 -121 -87 -77 c-48 -43 -100 -88 -116 -100
-36 -28 -88 -28 -132 -1 -58 36 -55 16 7 -49 l61 -62 27 22 c127 108 431 382
431 390 0 5 -12 1 -27 -10 -46 -32 -67 -34 -97 -11 -23 18 -343 375 -419 467
-34 41 -34 59 -2 107 15 20 24 39 22 41 -2 3 -89 -70 -193 -162z"/>
<path d="M2930 2659 c-75 -31 -130 -107 -130 -179 0 -35 25 -95 55 -136 15
-21 15 -21 -34 -16 -144 13 -241 -140 -173 -274 33 -65 94 -117 284 -245 171
-115 212 -135 148 -71 -17 18 -30 41 -30 55 0 14 32 73 76 138 42 63 126 187
186 276 120 179 133 189 195 159 20 -9 38 -14 41 -11 7 6 25 -6 -183 132 -99
66 -205 133 -235 148 -60 31 -157 42 -200 24z m258 -105 c29 -14 73 -45 99
-69 l48 -42 -85 -128 c-47 -70 -88 -133 -92 -139 -19 -29 -183 94 -218 165
-43 83 -6 195 75 229 42 18 120 11 173 -16z m-212 -334 c33 -16 79 -46 102
-65 l42 -36 -87 -127 c-47 -70 -87 -128 -89 -130 -5 -7 -91 42 -132 75 -59 48
-85 103 -80 168 5 61 33 105 80 128 49 24 98 21 164 -13z"/>
<path d="M7768 1984 c-82 -41 -148 -79 -148 -84 0 -13 1 -13 43 5 61 25 78 10
157 -146 l70 -137 -38 -20 -38 -20 -209 108 -208 108 -94 -46 c-51 -26 -93
-49 -93 -52 0 -3 37 -6 83 -5 l82 0 155 -79 c85 -43 161 -83 167 -88 10 -8 3
-21 -25 -54 -62 -69 -77 -146 -43 -219 38 -83 112 -122 209 -112 43 5 99 27
249 101 106 52 193 99 193 105 0 5 -18 2 -40 -6 -71 -28 -73 -26 -239 306
-140 280 -150 302 -140 331 6 17 24 37 40 46 26 13 40 35 22 33 -5 0 -74 -34
-155 -75z m211 -543 c41 -81 71 -153 67 -159 -4 -7 -28 -24 -54 -39 -90 -53
-192 -29 -241 57 -50 89 -19 183 82 251 33 21 62 39 66 39 4 0 40 -67 80 -149z"/>
</g>
</svg>
