<?xml version="1.0" standalone="no"?>
<!DOCTYPE svg PUBLIC "-//W3C//DTD SVG 20010904//EN"
 "http://www.w3.org/TR/2001/REC-SVG-20010904/DTD/svg10.dtd">
<svg version="1.0" xmlns="http://www.w3.org/2000/svg"
 width="1551.000000pt" height="1421.000000pt" viewBox="0 0 1551.000000 1421.000000"
 preserveAspectRatio="xMidYMid meet">

<g transform="translate(0.000000,1421.000000) scale(0.100000,-0.100000)"
fill="#000000" stroke="none">
<path d="M6668 13651 c-76 -25 -138 -50 -138 -56 0 -6 24 -10 57 -10 84 0 83
6 82 -345 -1 -162 -4 -319 -7 -349 l-7 -53 -198 256 c-109 140 -206 274 -216
297 -24 54 -17 78 30 98 22 9 37 21 35 26 -5 13 3 15 -198 -51 -97 -32 -174
-62 -172 -66 3 -4 24 -8 48 -8 54 0 88 -25 166 -122 l60 -76 -1 -138 c-1 -77
-4 -191 -8 -256 l-6 -116 -120 156 c-275 357 -315 412 -315 437 0 25 20 50 56
71 10 7 16 15 12 19 -9 9 -348 -104 -348 -116 0 -5 22 -9 49 -9 36 0 54 -6 72
-22 14 -13 161 -198 328 -411 205 -263 307 -385 314 -378 6 6 12 140 17 340 3
182 8 333 11 335 2 2 98 -116 213 -264 137 -176 213 -267 222 -263 11 4 14 60
15 302 1 163 4 391 8 508 5 194 8 214 27 240 11 15 30 33 42 39 11 5 18 15 14
20 -5 7 -56 -6 -144 -35z"/>
<path d="M7877 13603 c-3 -4 -84 -206 -182 -448 -97 -242 -184 -453 -192 -470
-23 -45 -52 -73 -89 -85 -66 -22 -33 -30 121 -30 124 0 155 3 155 14 0 8 -16
16 -42 19 -52 7 -81 37 -72 76 4 14 24 72 47 129 l40 102 56 0 c31 0 119 3
196 6 l141 7 43 -99 c55 -124 63 -175 30 -198 -13 -9 -33 -16 -46 -16 -22 0
-40 -16 -29 -27 9 -9 396 8 396 18 0 4 -17 13 -39 19 -51 13 -81 39 -109 91
-12 24 -108 235 -211 469 -104 233 -193 426 -199 428 -6 2 -12 -1 -15 -5z m68
-428 c47 -103 85 -191 85 -195 0 -8 -330 -23 -338 -15 -2 2 25 77 61 167 88
219 97 241 103 236 2 -3 42 -89 89 -193z"/>
<path d="M9020 13377 c0 -7 18 -19 39 -26 58 -17 84 -55 76 -109 -9 -60 -172
-730 -187 -765 -18 -45 -50 -61 -109 -53 -38 5 -50 4 -47 -5 3 -10 367 -107
406 -109 27 0 5 22 -33 36 -47 16 -75 46 -75 81 0 13 19 103 42 199 32 134 45
173 56 169 7 -3 31 -8 52 -11 21 -4 41 -11 43 -18 156 -383 211 -513 220 -522
7 -6 67 -25 135 -41 92 -23 122 -27 122 -18 0 8 -21 24 -46 37 -81 40 -106 81
-219 359 l-71 176 62 6 c151 14 244 110 244 251 0 61 -19 105 -69 159 -57 62
-122 88 -382 152 -123 31 -232 58 -241 61 -11 3 -18 0 -18 -9z m398 -142 c120
-36 176 -142 141 -268 -13 -49 -63 -105 -114 -128 -65 -30 -255 -19 -255 15 0
6 21 98 47 204 l47 192 41 0 c23 0 64 -7 93 -15z"/>
<path d="M4730 12979 c-184 -105 -343 -195 -352 -200 -16 -9 -13 -20 34 -114
53 -106 79 -126 57 -44 -16 59 -5 112 30 146 27 27 179 119 185 112 19 -23
406 -721 411 -741 11 -45 -3 -76 -46 -105 -22 -14 -36 -30 -31 -35 5 -5 87 36
188 93 205 116 188 105 180 117 -3 6 -23 1 -46 -10 -46 -23 -79 -19 -110 14
-21 23 -420 722 -420 735 0 5 35 28 77 52 118 67 183 68 253 5 22 -20 44 -34
49 -32 10 3 -103 191 -117 195 -4 1 -158 -83 -342 -188z"/>
<path d="M10580 12767 c0 -8 16 -24 35 -36 50 -29 62 -61 42 -111 -27 -70
-370 -694 -395 -719 -20 -20 -30 -22 -63 -17 -22 4 -48 12 -59 18 -20 13 -40
4 -24 -11 9 -9 580 -320 639 -348 l34 -16 97 88 c53 49 91 91 85 93 -7 2 -43
-13 -82 -33 -44 -23 -89 -39 -122 -42 -51 -5 -59 -2 -193 67 -153 79 -174 94
-174 123 0 11 43 100 97 198 l96 179 76 -42 c215 -117 233 -136 206 -224 -8
-27 -11 -52 -6 -57 8 -8 25 19 125 205 49 91 54 131 9 78 -35 -42 -76 -62
-110 -54 -39 9 -275 134 -271 144 15 38 185 340 192 340 18 0 280 -147 314
-176 33 -28 37 -37 37 -80 0 -27 -4 -64 -8 -81 -7 -26 -5 -33 6 -33 12 0 98
164 97 187 0 4 -109 67 -242 138 -133 72 -286 154 -340 183 -68 37 -98 49 -98
39z"/>
<path d="M3327 12074 c-147 -141 -264 -260 -261 -265 3 -5 19 2 36 16 35 29
68 40 102 31 23 -6 519 -516 573 -589 13 -17 23 -41 23 -54 0 -31 -25 -79 -47
-92 -12 -6 -15 -13 -8 -20 7 -7 61 39 165 138 85 82 152 152 148 156 -4 4 -22
-5 -41 -19 -49 -38 -86 -42 -123 -14 -17 13 -86 81 -154 152 l-123 130 86 82
c112 107 152 117 223 52 15 -14 24 -16 29 -8 4 7 -28 49 -81 103 -48 51 -100
105 -115 121 -36 38 -57 25 -27 -17 15 -21 23 -46 23 -74 0 -40 -5 -48 -88
-130 l-88 -88 -139 145 -140 145 93 89 c156 149 207 170 306 126 23 -11 47
-17 53 -14 8 5 -131 144 -151 151 -3 1 -126 -113 -274 -253z"/>
<path d="M11610 12055 c0 -8 8 -19 19 -24 10 -6 26 -27 36 -47 16 -34 16 -40
2 -69 -18 -39 -486 -605 -524 -635 -33 -26 -78 -22 -122 9 -32 23 -41 26 -41
12 0 -13 373 -320 440 -363 114 -71 153 -83 280 -83 112 0 117 1 194 38 207
99 344 342 307 544 -26 143 -91 223 -371 458 -115 96 -211 175 -214 175 -4 0
-6 -7 -6 -15z m342 -337 c78 -75 110 -147 116 -253 3 -63 0 -93 -18 -144 -45
-133 -156 -263 -276 -322 -65 -32 -75 -34 -174 -34 -94 0 -111 3 -160 27 -64
31 -125 81 -169 137 l-31 39 275 332 276 331 51 -28 c29 -15 78 -53 110 -85z"/>
<path d="M2545 11160 c-115 -25 -193 -68 -263 -145 -218 -239 -153 -607 138
-778 235 -137 516 -96 660 97 152 204 144 445 -20 638 -52 61 -170 139 -251
167 -71 25 -201 35 -264 21z m115 -138 c186 -64 365 -195 427 -313 24 -47 28
-65 28 -139 0 -95 -19 -145 -79 -208 -59 -63 -98 -77 -216 -77 -94 1 -113 4
-186 33 -104 41 -248 137 -309 204 -66 74 -97 139 -103 219 -4 57 -1 75 23
128 34 75 106 144 174 166 58 19 165 13 241 -13z"/>
<path d="M12688 10904 c-4 -3 5 -22 18 -41 36 -53 32 -89 -13 -129 -56 -49
-603 -448 -641 -468 -40 -21 -62 -15 -112 30 -21 19 -41 31 -43 27 -7 -11 440
-617 457 -621 8 -2 66 13 130 33 128 41 145 62 41 51 -89 -9 -159 8 -207 52
-48 43 -198 249 -198 272 0 9 12 28 28 42 33 30 287 217 305 224 8 3 41 -33
83 -91 120 -165 127 -190 67 -255 -70 -78 -21 -61 120 42 87 63 135 104 129
110 -6 6 -21 4 -40 -6 -17 -9 -48 -16 -68 -16 -45 0 -83 37 -180 171 l-62 86
156 114 c86 63 159 115 163 117 9 4 170 -211 206 -273 36 -63 30 -104 -23
-168 -26 -31 -30 -47 -13 -47 14 0 159 120 159 132 0 12 -442 617 -451 618 -3
0 -8 -3 -11 -6z"/>
<path d="M1460 9592 c0 -5 9 -17 20 -27 29 -27 25 -43 -29 -118 -61 -84 -86
-152 -85 -237 1 -77 19 -123 71 -180 51 -57 102 -80 182 -80 93 0 153 36 314
190 164 156 193 174 267 175 72 0 120 -33 145 -100 45 -117 -46 -295 -173
-341 -20 -7 -72 -13 -114 -14 -130 0 -107 -14 145 -85 53 -15 100 -25 104 -21
4 3 -4 17 -17 31 l-24 25 22 43 c12 23 40 71 62 106 47 76 60 113 67 201 9
120 -56 236 -158 280 -64 27 -162 25 -223 -5 -22 -10 -103 -79 -180 -153 -168
-160 -228 -203 -283 -204 -128 -2 -190 142 -117 272 35 62 96 114 152 130 20
5 70 10 110 10 51 0 72 4 70 11 -4 11 -286 99 -315 99 -7 0 -13 -4 -13 -8z"/>
<path d="M13474 9430 c4 -27 1 -53 -9 -78 -11 -25 -132 -153 -375 -397 -198
-198 -360 -365 -360 -371 0 -8 144 -13 488 -18 535 -8 570 -11 615 -65 48 -57
44 -16 -12 125 -56 142 -79 170 -73 91 3 -31 -2 -49 -16 -67 -19 -24 -27 -25
-144 -29 -67 -2 -237 0 -377 4 l-254 7 244 245 c134 134 263 255 285 269 49
29 79 21 108 -27 9 -16 24 -29 32 -29 8 0 13 3 11 8 -3 4 -37 89 -77 190 -69
177 -100 227 -86 142z"/>
<path d="M2038 8272 c-25 -83 -66 -123 -278 -267 l-184 -125 -22 60 c-30 84
-67 133 -122 162 -99 54 -191 44 -270 -27 -89 -80 -106 -155 -117 -507 -4
-130 -3 -208 3 -208 5 0 12 19 16 43 10 58 30 85 71 93 36 6 704 -12 788 -22
67 -8 89 -29 95 -92 2 -29 8 -52 13 -52 11 0 18 80 22 268 4 132 2 162 -9 162
-9 0 -14 -12 -14 -35 0 -42 -22 -90 -45 -99 -22 -8 -319 -8 -368 0 l-38 7 3
51 3 51 243 164 242 164 0 118 c0 64 3 124 6 133 4 10 1 16 -7 16 -8 0 -21
-24 -31 -58z m-633 -321 c86 -39 135 -133 135 -259 l0 -65 -207 8 c-115 3
-212 10 -217 15 -5 5 -9 44 -9 87 -1 84 18 136 65 180 56 53 159 68 233 34z"/>
<path d="M13860 7891 c0 -63 -6 -79 -40 -96 -32 -16 -774 -118 -829 -113 -27
2 -40 11 -58 37 -13 19 -23 47 -23 62 0 20 -5 29 -15 29 -12 0 -15 -7 -10 -32
3 -18 25 -188 50 -378 25 -190 47 -349 48 -354 2 -6 60 -22 130 -36 148 -30
167 -20 57 31 -80 37 -134 89 -149 146 -13 48 -41 246 -41 290 0 23 7 37 23
47 12 8 96 24 187 35 91 12 179 24 196 27 l31 6 18 -149 c16 -140 16 -151 1
-181 -15 -29 -46 -50 -98 -66 -26 -8 -22 -26 5 -26 13 0 88 9 167 20 79 11
145 20 147 20 2 0 3 4 3 9 0 5 -18 11 -40 15 -60 9 -87 26 -104 60 -14 31 -54
292 -45 300 8 8 384 53 390 47 4 -3 17 -84 29 -178 29 -226 20 -254 -92 -294
-38 -13 -46 -23 -29 -33 8 -6 198 27 206 36 2 2 -18 173 -45 378 -28 206 -50
378 -50 383 0 4 -4 7 -10 7 -5 0 -10 -22 -10 -49z"/>
<path d="M1451 6854 c-82 -17 -194 -71 -249 -119 -237 -207 -221 -579 34 -761
93 -66 177 -94 289 -94 232 0 424 111 512 297 33 68 38 89 41 169 7 161 -31
267 -135 372 -127 128 -304 177 -492 136z m398 -169 c69 -32 115 -75 149 -140
23 -43 27 -63 27 -135 0 -75 -3 -91 -27 -132 -74 -124 -281 -223 -510 -243
-188 -17 -343 64 -383 199 -62 207 60 369 336 445 173 48 311 50 408 6z"/>
<path d="M12870 6388 c0 -7 -20 -170 -45 -363 -25 -192 -46 -361 -47 -374 -3
-21 10 -30 122 -81 69 -32 129 -55 134 -52 5 3 -1 13 -14 21 -159 105 -180
164 -144 408 18 124 25 140 60 149 33 8 758 -83 801 -101 41 -17 57 -49 56
-112 -1 -55 13 -81 21 -41 18 80 55 423 47 431 -6 6 -12 -1 -16 -19 -19 -86
-38 -104 -106 -104 -60 0 -747 88 -787 101 -41 13 -65 58 -60 110 2 27 0 39
-9 39 -7 0 -13 -6 -13 -12z"/>
<path d="M12687 4995 c-188 -52 -325 -203 -357 -397 -51 -301 215 -587 546
-588 192 0 363 102 440 264 96 201 60 411 -95 567 -135 135 -363 201 -534 154z
m188 -156 c44 -11 123 -41 175 -66 122 -59 217 -149 245 -231 47 -143 -21
-304 -154 -366 -38 -18 -64 -21 -156 -20 -100 0 -120 4 -220 38 -192 65 -303
143 -355 251 -34 69 -34 178 -1 252 68 152 228 201 466 142z"/>
<path d="M2440 4983 c0 -5 7 -26 14 -48 20 -57 10 -92 -33 -119 -61 -38 -660
-354 -696 -368 -46 -16 -83 -2 -113 42 -24 36 -42 49 -42 31 0 -24 196 -378
207 -374 8 3 6 17 -8 48 -24 55 -17 88 25 119 41 32 661 359 707 375 47 15 81
1 110 -46 19 -30 39 -44 39 -26 0 4 -44 89 -97 190 -85 160 -113 204 -113 176z"/>
<path d="M2485 3904 c-182 -163 -340 -304 -353 -312 -37 -24 -81 -17 -118 18
-18 18 -37 29 -43 26 -6 -4 37 -60 105 -136 112 -125 162 -161 108 -80 -34 51
-33 83 2 125 48 57 468 428 472 417 2 -6 -29 -214 -68 -464 -39 -249 -71 -460
-73 -469 -3 -22 175 -221 186 -210 6 6 1 20 -12 37 -29 36 -44 99 -36 150 6
40 19 53 287 293 155 139 294 259 310 267 36 19 71 10 108 -28 17 -16 34 -26
40 -23 10 6 -215 265 -231 265 -13 0 -11 -6 16 -46 35 -51 36 -82 5 -122 -37
-47 -505 -459 -508 -448 -2 7 31 231 73 499 75 486 81 537 67 537 -4 0 -156
-133 -337 -296z"/>
<path d="M11820 3835 c-66 -97 -118 -180 -114 -186 3 -6 21 7 41 30 57 67 79
62 266 -66 l156 -107 -59 -62 c-152 -163 -166 -333 -36 -452 57 -52 107 -72
178 -72 127 0 209 70 392 335 121 175 152 240 76 156 -50 -54 -84 -55 -160 -4
-195 130 -580 400 -607 426 -39 37 -44 82 -13 133 12 18 17 35 11 38 -5 3 -64
-73 -131 -169z m559 -475 c88 -61 161 -118 161 -126 0 -52 -80 -143 -146 -164
-101 -34 -248 36 -291 139 -19 44 -18 122 1 158 23 45 87 115 101 109 7 -2 85
-55 174 -116z"/>
<path d="M3683 3006 c-107 -35 -149 -81 -364 -402 -82 -123 -158 -228 -169
-234 -28 -15 -88 -12 -115 6 -13 9 -29 13 -35 9 -6 -4 54 -51 135 -106 81 -54
151 -96 157 -93 5 3 -7 20 -27 36 -48 40 -59 69 -41 113 20 46 305 470 355
527 62 70 115 92 209 86 127 -8 238 -79 282 -180 29 -68 23 -123 -26 -220 -51
-100 -330 -515 -360 -535 -31 -20 -78 -19 -109 1 -27 18 -45 21 -45 8 0 -17
352 -244 362 -234 6 6 -3 17 -25 31 -19 12 -40 34 -47 50 -17 42 1 78 180 346
84 127 163 252 176 279 85 183 -7 365 -243 483 -84 41 -178 53 -250 29z"/>
<path d="M10788 2789 c-145 -127 -274 -242 -287 -255 l-25 -23 49 -121 c54
-134 73 -144 56 -30 -12 76 -7 127 15 172 8 15 67 75 131 133 139 124 148 127
215 58 83 -87 229 -256 226 -264 -5 -14 -188 -169 -218 -184 -43 -22 -80 -18
-124 15 -40 30 -68 31 -43 2 94 -112 212 -242 218 -242 14 0 10 17 -11 52 -42
69 -23 108 113 227 56 50 104 91 107 90 9 -1 255 -288 255 -298 0 -10 -183
-174 -249 -222 -57 -43 -127 -36 -189 19 -11 9 -21 12 -26 6 -6 -5 20 -41 64
-89 l74 -80 28 26 c26 24 544 479 552 485 1 1 0 8 -4 14 -5 8 -14 6 -29 -8
-54 -49 -91 -53 -137 -14 -42 34 -493 544 -526 594 -30 45 -26 72 17 122 32
36 36 46 20 46 -5 0 -128 -104 -272 -231z"/>
<path d="M9698 2154 c-104 -52 -188 -99 -188 -104 0 -14 11 -13 55 5 39 17 68
13 99 -14 17 -15 176 -321 176 -339 0 -4 -20 -18 -45 -30 l-44 -21 -260 135
-259 135 -116 -58 c-64 -32 -116 -64 -116 -71 0 -11 7 -12 28 -6 15 5 59 9 98
9 70 0 76 -3 225 -79 85 -43 182 -94 217 -113 l62 -35 -23 -18 c-13 -11 -41
-43 -61 -73 -65 -94 -60 -213 12 -298 20 -23 54 -50 76 -60 57 -26 155 -25
234 2 50 17 457 211 471 224 1 2 0 8 -4 14 -4 8 -15 6 -35 -4 -43 -22 -93 -19
-117 8 -32 34 -374 726 -375 758 -1 37 23 73 61 89 30 12 39 24 24 33 -5 3
-92 -37 -195 -89z m332 -894 c-48 -36 -115 -64 -167 -68 -97 -8 -183 57 -213
162 -27 99 35 208 157 274 l58 31 95 -190 95 -190 -25 -19z"/>
<path d="M5319 2065 c-55 -28 -100 -77 -135 -147 -14 -29 -71 -178 -125 -332
-55 -155 -108 -292 -118 -306 -22 -30 -54 -39 -105 -28 -41 9 -60 3 -36 -12 8
-5 96 -38 194 -72 99 -35 183 -64 188 -66 4 -2 8 3 8 11 0 8 -10 17 -23 21
-41 10 -77 52 -77 88 0 18 59 202 132 408 101 285 139 382 159 403 15 15 32
27 38 27 22 0 39 -32 45 -89 6 -48 12 -64 33 -81 34 -26 59 -25 88 5 33 32 34
91 3 130 -52 66 -182 85 -269 40z"/>
</g>
</svg>
